<svg width="80" height="41" viewBox="0 0 80 41" fill="none" xmlns="http://www.w3.org/2000/svg">
<mask id="mask0_140_14030" style="mask-type:alpha" maskUnits="userSpaceOnUse" x="0" y="0" width="80" height="41">
<path fill-rule="evenodd" clip-rule="evenodd" d="M0 0H80V41H0V0Z" fill="white"/>
</mask>
<g mask="url(#mask0_140_14030)">
<path fill-rule="evenodd" clip-rule="evenodd" d="M76.81 32.3937H72.9831L72.871 32.0135C72.0034 29.0673 69.2742 27.0099 66.2342 27.0099C63.1941 27.0099 60.4649 29.0673 59.597 32.0135L59.4849 32.3937H55.6581V6.48274H67.52L74.7856 16.4829H61.5748C60.6952 16.4829 59.9798 17.2058 59.9798 18.0944C59.9798 18.9827 60.6952 19.7054 61.5748 19.7054H76.81V32.3937ZM66.2342 37.7775C64.1749 37.7775 62.4996 36.0851 62.4996 34.005C62.4996 31.9245 64.1749 30.2321 66.2342 30.2321C68.2934 30.2321 69.969 31.9245 69.969 34.005C69.969 36.0851 68.2934 37.7775 66.2342 37.7775ZM37.478 32.3937C36.7826 29.3515 34.0863 27.0826 30.8631 27.0826C27.6404 27.0826 24.9441 29.3515 24.2488 32.3937H21.865C21.1697 29.3515 18.4734 27.0826 15.2502 27.0826C12.0275 27.0826 9.33122 29.3515 8.63589 32.3937H6.31236V25.6997L52.4683 25.7V32.3937H37.478ZM30.8631 37.6972C28.8103 37.6972 27.1458 36.0159 27.1458 33.9422C27.1458 31.8682 28.8103 30.1868 30.8631 30.1868C32.9162 30.1868 34.5806 31.8682 34.5806 33.9422C34.5806 36.0159 32.9162 37.6972 30.8631 37.6972ZM15.2502 37.6972C13.1974 37.6972 11.5329 36.0159 11.5329 33.9422C11.5329 31.8682 13.1974 30.1868 15.2502 30.1868C17.3033 30.1868 18.9677 31.8682 18.9677 33.9422C18.9677 36.0159 17.3033 37.6972 15.2502 37.6972ZM3.19005 22.4778H18.1416V3.25742H3.19005V22.4778ZM19.4654 22.4778H36.1269V3.25742H19.4654V22.4778ZM37.4506 22.4778H52.4683V3.25742H37.4506V22.4778ZM79.5821 17.007H79.5824L69.4002 3.78409C69.0986 3.45091 68.6698 3.26024 68.2228 3.26024H55.6581V1.64617C55.6581 0.757888 54.9424 0.0352047 54.0633 0.0352047H1.92122L1.87578 0.0270372C1.7743 0.00901241 1.68285 0 1.5953 0C0.715406 0 0 0.722683 0 1.61125V24.0891C0 24.9773 0.715406 25.7 1.5953 25.7L1.65274 25.6972L1.71352 25.6997H3.1223V34.005C3.1223 34.8932 3.83799 35.6159 4.71733 35.6159L4.77504 35.6131L4.8361 35.6156L8.66461 35.6159C9.40427 38.5951 12.0718 40.8014 15.2502 40.8014C18.4291 40.8014 21.0964 38.5951 21.8361 35.6159H24.2775C25.0172 38.5951 27.6848 40.8014 30.8631 40.8014C34.042 40.8014 36.7093 38.5951 37.449 35.6159H59.4849L59.597 35.9964C60.4649 38.9424 63.1941 41 66.2342 41C69.2742 41 72.0034 38.9424 72.871 35.9964L72.9831 35.6159H78.4053C79.2843 35.6159 80 34.8932 80 34.005V18.0944C80 17.6905 79.8517 17.3047 79.5821 17.007Z" fill="white"/>
</g>
</svg>
