<svg width="81" height="49" viewBox="0 0 81 49" fill="none" xmlns="http://www.w3.org/2000/svg">
<path fill-rule="evenodd" clip-rule="evenodd" d="M15.5917 1L1 25.4246L11.828 32.1099L13.7326 28.9241L15.644 30.3495C14.7533 31.5829 14.6709 33.2367 15.4346 34.5551C16.1983 35.8736 17.6613 36.6034 19.1551 36.4111C18.869 37.78 19.341 39.1984 20.386 40.1101C21.431 41.0218 22.8824 41.2814 24.1711 40.7872C24.0843 42.2731 24.8533 43.6754 26.1426 44.3824C27.4319 45.0894 29.0078 44.9728 30.1827 44.0835C30.1965 45.5591 31.0439 46.8951 32.3607 47.5176C33.6775 48.1401 35.2293 47.9382 36.3491 46.9986L38.9691 44.8034V44.7896L42.445 47.3305C43.5241 48.1191 44.9496 48.2189 46.125 47.5882C47.3004 46.9575 48.023 45.705 47.9903 44.3549C49.2281 45.119 50.7874 45.0945 52.0014 44.292C53.2154 43.4895 53.8691 42.0511 53.683 40.5918C54.9883 40.9854 56.401 40.6328 57.3783 39.6696C58.3555 38.7064 58.7452 37.2824 58.3975 35.9449C59.4792 36.0243 60.5396 35.6104 61.2907 34.8155C62.0418 34.0207 62.4056 32.9274 62.2834 31.8325L67.0997 27.3425L69.2493 30.8383L80 24.0177L66.047 1.32487L55.2963 8.14555L56.8364 10.6507L52.354 12.3149L45.9738 9.99855C44.338 9.40611 42.5318 9.54595 41.0033 10.3833C38.1633 9.70179 35.1965 9.79409 32.4029 10.6509C29.7638 10.8868 27.1147 10.9867 24.4656 10.9502L26.4191 7.68242L15.5917 1ZM16.06 2.95644L24.4921 8.1592L11.3393 30.1535L2.9066 24.9472L16.06 2.95644ZM78.0663 23.5647L65.6004 3.28813L57.2281 8.60137L69.6973 28.878L78.0663 23.5647ZM44.1133 11.0638C44.5873 11.0852 45.0555 11.1789 45.502 11.3417L52.3628 13.8291L57.5993 11.8834L66.3477 26.1127L61.7947 30.3569C61.5756 29.9817 61.2929 29.6487 60.9598 29.3734L44.9163 16.1418C41.6801 18.0033 37.845 18.4705 34.2674 17.439C33.8639 17.3242 33.5796 16.9577 33.5641 16.5323C33.5486 16.1069 33.8055 15.72 34.1995 15.5753C36.6862 14.6674 39.0466 13.436 41.2218 11.9119C42.0688 11.3173 43.0834 11.0195 44.1119 11.0638H44.1133ZM39.28 11.5024C38.5756 11.4031 37.8652 11.3543 37.1541 11.3562L37.1582 11.3564C35.6378 11.3597 34.1266 11.5952 32.6751 12.0549C29.6668 12.3297 26.6456 12.4307 23.626 12.3576L14.4466 27.7024L16.6492 29.3452L19.0628 27.3211C20.1823 26.3844 21.7315 26.1837 23.0465 26.805C24.3615 27.4263 25.2087 28.7592 25.2251 30.2325L25.4763 30.0188C26.7299 28.9649 28.5078 28.8478 29.8849 29.7283C31.262 30.6088 31.9271 32.2881 31.5341 33.8923C32.663 33.7903 33.7772 34.2101 34.5676 35.0353C35.3581 35.8605 35.7409 37.0035 35.61 38.1473C37.0641 37.7644 38.6032 38.2958 39.5267 39.4995C40.4501 40.7033 40.5815 42.3494 39.861 43.6885L43.2669 46.1723C44.2082 46.8095 45.4772 46.5747 46.1369 45.6413C46.7967 44.7078 46.6102 43.4112 45.7151 42.7086L39.079 37.8621C38.7893 37.6248 38.7326 37.1989 38.9499 36.8919C39.1671 36.585 39.5826 36.504 39.8963 36.7075L48.57 43.0364C49.2549 43.5651 50.1683 43.6744 50.9554 43.3219C51.7424 42.9694 52.2792 42.2107 52.3572 41.3403C52.4351 40.47 52.042 39.6253 51.3304 39.1343L42.109 32.4027C41.7943 32.1734 41.7222 31.7283 41.9478 31.4086C42.1734 31.0889 42.6114 31.0154 42.9262 31.2446L53.3755 38.8706C54.4361 39.6018 55.8769 39.3419 56.625 38.2845C57.3731 37.227 57.1562 35.7567 56.1359 34.9684L45.0697 26.8899C44.7584 26.6594 44.6884 26.217 44.9128 25.899C45.1372 25.5809 45.5721 25.5063 45.8869 25.7317L57.3529 34.1025C58.3386 34.7981 59.6884 34.5827 60.4169 33.6138C61.1453 32.6448 60.9946 31.2651 60.0747 30.482L44.7466 17.8384C41.3655 19.5051 37.4992 19.8501 33.8839 18.8077C32.8964 18.5221 32.203 17.622 32.1674 16.5794C32.1318 15.5369 32.7622 14.5901 33.7278 14.2357C35.6684 13.5264 37.5295 12.6102 39.28 11.5024ZM21.3108 27.884C21.39 27.88 21.4692 27.88 21.5484 27.884C22.524 27.9265 23.3737 28.5736 23.6874 29.5131C24.0011 30.4526 23.7144 31.4914 22.9656 32.1282L20.1705 34.4695C19.1598 35.2613 17.7132 35.0959 16.9009 34.0957C16.0887 33.0955 16.2038 31.6211 17.161 30.7634L19.9526 28.4186C20.3395 28.0992 20.8158 27.9122 21.3135 27.8841L21.3108 27.884ZM30.0793 32.1041C29.7113 31.1382 28.7758 30.5204 27.7575 30.5709V30.5708C27.2474 30.5963 26.759 30.7889 26.3654 31.1198L21.3176 35.3532C20.3237 36.2022 20.1891 37.7064 21.016 38.7236C21.8429 39.7407 23.3222 39.8906 24.3306 39.0594L29.3784 34.8258C30.1648 34.1668 30.4472 33.07 30.0793 32.1041ZM31.7248 35.314C32.7422 35.2581 33.6805 35.8703 34.0537 36.8335C34.4269 37.7967 34.1512 38.8945 33.3694 39.5582L29.4205 42.8723C28.4122 43.7174 26.9205 43.5721 26.0886 42.5478C25.2567 41.5235 25.3995 40.008 26.4075 39.1627L30.3565 35.8522C30.745 35.5301 31.2241 35.3417 31.7248 35.3143V35.314ZM38.7707 41.0894C38.4548 40.1508 37.6037 39.5058 36.6281 39.4656L36.6308 39.4655C36.5516 39.4626 36.4723 39.4639 36.3932 39.4691C35.9009 39.4992 35.43 39.6848 35.0466 40.0001L32.426 42.1953C31.4388 43.046 31.3079 44.5449 32.1323 45.559C32.9567 46.573 34.4301 46.7256 35.4389 45.9014L38.0555 43.7062C38.8026 43.0675 39.0867 42.028 38.7707 41.0894Z" fill="white"/>
<path d="M1 25.4246L0.441995 25.0913L0.113464 25.6412L0.658528 25.9777L1 25.4246ZM15.5917 1L15.9331 0.446865L15.3719 0.100518L15.0337 0.666638L15.5917 1ZM11.828 32.1099L11.4866 32.663L12.0476 33.0093L12.3859 32.4434L11.828 32.1099ZM13.7326 28.9241L14.1212 28.403L13.5441 27.9727L13.1747 28.5906L13.7326 28.9241ZM15.644 30.3495L16.1709 30.73L16.5457 30.2111L16.0325 29.8284L15.644 30.3495ZM19.1551 36.4111L19.7914 36.5441L19.9783 35.6498L19.0721 35.7665L19.1551 36.4111ZM24.1711 40.7872L24.8199 40.8251L24.8787 39.8197L23.9383 40.1803L24.1711 40.7872ZM30.1827 44.0835L30.8327 44.0775L30.8206 42.7856L29.7904 43.5652L30.1827 44.0835ZM32.3607 47.5176L32.6385 46.93L32.3607 47.5176ZM36.3491 46.9986L35.9317 46.5003L35.9313 46.5006L36.3491 46.9986ZM38.9691 44.8034L39.3865 45.3016L39.6191 45.1068V44.8034H38.9691ZM38.9691 44.7896L39.3527 44.2649L38.3191 43.5093V44.7896H38.9691ZM42.445 47.3305L42.0614 47.8552L42.0614 47.8553L42.445 47.3305ZM47.9903 44.3549L48.3317 43.8018L47.3115 43.172L47.3405 44.3706L47.9903 44.3549ZM53.683 40.5918L53.8706 39.9695L52.9114 39.6802L53.0382 40.674L53.683 40.5918ZM58.3975 35.9449L58.4451 35.2966L57.5402 35.2302L57.7684 36.1084L58.3975 35.9449ZM62.2834 31.8325L61.8401 31.3571L61.6011 31.5799L61.6374 31.9046L62.2834 31.8325ZM67.0997 27.3425L67.6534 27.002L67.2374 26.3255L66.6565 26.867L67.0997 27.3425ZM69.2493 30.8383L68.6956 31.1787L69.0409 31.7403L69.5975 31.3871L69.2493 30.8383ZM80 24.0177L80.3482 24.5665L80.8894 24.2232L80.5537 23.6772L80 24.0177ZM66.047 1.32487L66.6007 0.984412L66.2554 0.422852L65.6988 0.776009L66.047 1.32487ZM55.2963 8.14555L54.9481 7.59669L54.407 7.94001L54.7426 8.48596L55.2963 8.14555ZM56.8364 10.6507L57.0626 11.2601L57.8047 10.9846L57.3901 10.3103L56.8364 10.6507ZM52.354 12.3149L52.1322 12.9259L52.3565 13.0073L52.5802 12.9242L52.354 12.3149ZM45.9738 9.99855L46.1956 9.38757L46.1951 9.3874L45.9738 9.99855ZM41.0033 10.3833L40.8516 11.0154L41.0956 11.0739L41.3156 10.9534L41.0033 10.3833ZM32.4029 10.6509L32.4608 11.2983L32.5285 11.2923L32.5935 11.2723L32.4029 10.6509ZM24.4656 10.9502L23.9077 10.6167L23.3291 11.5846L24.4567 11.6001L24.4656 10.9502ZM26.4191 7.68242L26.977 8.01593L27.3058 7.46586L26.7604 7.12928L26.4191 7.68242ZM24.4921 8.1592L25.05 8.4928L25.379 7.94264L24.8334 7.60603L24.4921 8.1592ZM16.06 2.95644L16.4013 2.40327L15.8405 2.05721L15.5022 2.62278L16.06 2.95644ZM11.3393 30.1535L10.9979 30.7066L11.5588 31.0529L11.8972 30.4871L11.3393 30.1535ZM2.9066 24.9472L2.34877 24.6135L2.01977 25.1635L2.56513 25.5002L2.9066 24.9472ZM65.6004 3.28813L66.1541 2.94771L65.8088 2.38603L65.2521 2.73932L65.6004 3.28813ZM78.0663 23.5647L78.4146 24.1135L78.9555 23.7701L78.62 23.2243L78.0663 23.5647ZM57.2281 8.60137L56.8798 8.05255L56.3387 8.39595L56.6744 8.94186L57.2281 8.60137ZM69.6973 28.878L69.1436 29.2185L69.489 29.7802L70.0457 29.4268L69.6973 28.878ZM45.502 11.3417L45.2793 11.9524L45.2805 11.9528L45.502 11.3417ZM44.1133 11.0638L44.1426 10.4145L44.1279 10.4138H44.1133V11.0638ZM52.3628 13.8291L52.1412 14.4402L52.3655 14.5215L52.5892 14.4384L52.3628 13.8291ZM57.5993 11.8834L58.153 11.543L57.8734 11.0881L57.3729 11.2741L57.5993 11.8834ZM66.3477 26.1127L66.7909 26.5882L67.18 26.2254L66.9014 25.7723L66.3477 26.1127ZM61.7947 30.3569L61.2333 30.6847L61.6432 31.3867L62.2379 30.8324L61.7947 30.3569ZM60.9598 29.3734L61.3739 28.8724L61.3734 28.8719L60.9598 29.3734ZM44.9163 16.1418L45.3298 15.6404L44.9825 15.3539L44.5922 15.5784L44.9163 16.1418ZM34.2674 17.439L34.4475 16.8145L34.4453 16.8138L34.2674 17.439ZM33.5641 16.5323L32.9146 16.556V16.556L33.5641 16.5323ZM34.1995 15.5753L33.9766 14.9647L33.9754 14.9651L34.1995 15.5753ZM41.2218 11.9119L41.5948 12.4442L41.5953 12.4439L41.2218 11.9119ZM44.1119 11.0638L44.084 11.7132L44.098 11.7138H44.1119V11.0638ZM37.1541 11.3562L37.1523 10.7062L37.1211 12.0054L37.1541 11.3562ZM39.28 11.5024L39.6275 12.0517L41.1223 11.1057L39.3707 10.8588L39.28 11.5024ZM37.1582 11.3564L37.1596 12.0064L37.1912 10.7073L37.1582 11.3564ZM32.6751 12.0549L32.7342 12.7022L32.8043 12.6958L32.8713 12.6746L32.6751 12.0549ZM23.626 12.3576L23.6417 11.7078L23.2628 11.6987L23.0682 12.024L23.626 12.3576ZM14.4466 27.7024L13.8888 27.3687L13.5875 27.8724L14.058 28.2234L14.4466 27.7024ZM16.6492 29.3452L16.2606 29.8662L16.6728 30.1737L17.0669 29.8432L16.6492 29.3452ZM19.0628 27.3211L18.6457 26.8226L18.6451 26.823L19.0628 27.3211ZM23.0465 26.805L23.3242 26.2173L23.0465 26.805ZM25.2251 30.2325L24.5752 30.2398L24.5906 31.6263L25.6465 30.7275L25.2251 30.2325ZM25.4763 30.0188L25.058 29.5212L25.055 29.5238L25.4763 30.0188ZM29.8849 29.7283L30.235 29.1807V29.1807L29.8849 29.7283ZM31.5341 33.8923L30.9028 33.7376L30.6862 34.6215L31.5926 34.5396L31.5341 33.8923ZM35.61 38.1473L34.9642 38.0733L34.856 39.0179L35.7755 38.7758L35.61 38.1473ZM39.5267 39.4995L39.0109 39.8952L39.5267 39.4995ZM39.861 43.6885L39.2886 43.3806L39.02 43.8797L39.478 44.2137L39.861 43.6885ZM43.2669 46.1723L42.8839 46.6975L42.8931 46.7042L42.9025 46.7106L43.2669 46.1723ZM46.1369 45.6413L46.6677 46.0164H46.6677L46.1369 45.6413ZM45.7151 42.7086L46.1165 42.1973L46.1076 42.1903L46.0985 42.1836L45.7151 42.7086ZM39.079 37.8621L38.6672 38.365L38.6811 38.3764L38.6957 38.387L39.079 37.8621ZM38.9499 36.8919L39.4804 37.2674L38.9499 36.8919ZM39.8963 36.7075L40.2794 36.1824L40.265 36.172L40.2501 36.1623L39.8963 36.7075ZM48.57 43.0364L48.9671 42.5218L48.9602 42.5165L48.9531 42.5113L48.57 43.0364ZM50.9554 43.3219L51.221 43.9151L50.9554 43.3219ZM52.3572 41.3403L53.0046 41.3983V41.3983L52.3572 41.3403ZM51.3304 39.1343L50.9472 39.6593L50.9541 39.6643L50.9612 39.6692L51.3304 39.1343ZM42.109 32.4027L42.4922 31.8777L42.4918 31.8774L42.109 32.4027ZM41.9478 31.4086L42.4789 31.7834L42.4789 31.7834L41.9478 31.4086ZM42.9262 31.2446L43.3094 30.7195L43.3087 30.7191L42.9262 31.2446ZM53.3755 38.8706L52.9923 39.3956L52.9993 39.4007L53.0065 39.4057L53.3755 38.8706ZM56.625 38.2845L57.1557 38.6599V38.6599L56.625 38.2845ZM56.1359 34.9684L56.5333 34.4541L56.5263 34.4487L56.5192 34.4434L56.1359 34.9684ZM45.0697 26.8899L44.6828 27.4122L44.6864 27.4149L45.0697 26.8899ZM44.9128 25.899L44.3817 25.5242L44.3817 25.5242L44.9128 25.899ZM45.8869 25.7317L46.2702 25.2067L46.2653 25.2032L45.8869 25.7317ZM57.3529 34.1025L56.9696 34.6276L56.9782 34.6336L57.3529 34.1025ZM60.4169 33.6138L59.8973 33.2232L60.4169 33.6138ZM60.0747 30.482L60.4961 29.987L60.4883 29.9805L60.0747 30.482ZM44.7466 17.8384L45.1602 17.337L44.8361 17.0697L44.4592 17.2554L44.7466 17.8384ZM33.8839 18.8077L33.7033 19.4321L33.7038 19.4323L33.8839 18.8077ZM32.1674 16.5794L32.817 16.5573L32.1674 16.5794ZM33.7278 14.2357L33.5047 13.6252L33.5038 13.6255L33.7278 14.2357ZM21.5484 27.884L21.5152 28.5332L21.5201 28.5334L21.5484 27.884ZM21.3108 27.884L21.2777 27.2348L21.2775 28.5331L21.3108 27.884ZM23.6874 29.5131L24.3039 29.3072L23.6874 29.5131ZM22.9656 32.1282L23.383 32.6265L23.3867 32.6234L22.9656 32.1282ZM20.1705 34.4695L20.5714 34.9811L20.5798 34.9746L20.5879 34.9677L20.1705 34.4695ZM16.9009 34.0957L17.4055 33.686H17.4055L16.9009 34.0957ZM17.161 30.7634L16.7429 30.2657L16.7349 30.2723L16.7272 30.2793L17.161 30.7634ZM19.9526 28.4186L19.5388 27.9173L19.5346 27.9208L19.9526 28.4186ZM21.3135 27.8841L21.3501 28.5331L21.3468 27.235L21.3135 27.8841ZM27.7575 30.5709H27.1075V31.254L27.7898 31.2201L27.7575 30.5709ZM30.0793 32.1041L30.6867 31.8727L30.0793 32.1041ZM27.7575 30.5708H28.4075V29.8876L27.7251 29.9217L27.7575 30.5708ZM26.3654 31.1198L26.7831 31.6178L26.7837 31.6173L26.3654 31.1198ZM21.3176 35.3532L20.8999 34.8552L20.8954 34.859L21.3176 35.3532ZM21.016 38.7236L20.5116 39.1336L21.016 38.7236ZM24.3306 39.0594L24.744 39.5609L24.7482 39.5574L24.3306 39.0594ZM29.3784 34.8258L28.9609 34.3277L28.9607 34.3278L29.3784 34.8258ZM34.0537 36.8335L34.6598 36.5987H34.6598L34.0537 36.8335ZM31.7248 35.314L31.6892 34.665L31.0748 34.6987V35.314H31.7248ZM33.3694 39.5582L33.7873 40.0561L33.7901 40.0537L33.3694 39.5582ZM29.4205 42.8723L29.838 43.3705L29.8383 43.3702L29.4205 42.8723ZM26.0886 42.5478L26.5932 42.138L26.0886 42.5478ZM26.4075 39.1627L25.9899 38.6646L25.9899 38.6646L26.4075 39.1627ZM30.3565 35.8522L29.9416 35.3518L29.9389 35.354L30.3565 35.8522ZM31.7248 35.3143L31.7604 35.9633L32.3748 35.9296V35.3143H31.7248ZM36.6281 39.4656L36.5953 38.8164L36.6013 40.1151L36.6281 39.4656ZM36.6308 39.4655L36.6636 40.1146L36.654 38.8159L36.6308 39.4655ZM36.3932 39.4691L36.4328 40.1179L36.4364 40.1177L36.3932 39.4691ZM35.0466 40.0001L34.6337 39.4981L34.6292 39.5018L35.0466 40.0001ZM32.426 42.1953L32.0085 41.697L32.0016 41.7029L32.426 42.1953ZM32.1323 45.559L31.6279 45.969L32.1323 45.559ZM35.4389 45.9014L35.8502 46.4048L35.8567 46.3993L35.4389 45.9014ZM38.0555 43.7062L38.4733 44.2042L38.4779 44.2002L38.0555 43.7062ZM1.55801 25.758L16.1497 1.33336L15.0337 0.666638L0.441995 25.0913L1.55801 25.758ZM12.1695 31.5568L1.34147 24.8716L0.658528 25.9777L11.4866 32.663L12.1695 31.5568ZM13.1747 28.5906L11.2701 31.7763L12.3859 32.4434L14.2905 29.2576L13.1747 28.5906ZM16.0325 29.8284L14.1212 28.403L13.344 29.4452L15.2554 30.8706L16.0325 29.8284ZM15.9971 34.2293C15.3616 33.1323 15.4306 31.7552 16.1709 30.73L15.117 29.969C14.0759 31.4106 13.9802 33.3411 14.8722 34.8809L15.9971 34.2293ZM19.0721 35.7665C17.842 35.9248 16.6315 35.3246 15.9971 34.2293L14.8722 34.8809C15.7651 36.4225 17.4806 37.282 19.2381 37.0558L19.0721 35.7665ZM20.8133 39.6203C19.9473 38.8648 19.5529 37.6853 19.7914 36.5441L18.5189 36.2782C18.1852 37.8747 18.7347 39.5321 19.9587 40.5999L20.8133 39.6203ZM23.9383 40.1803C22.8757 40.5878 21.6781 40.3747 20.8133 39.6203L19.9587 40.5999C21.184 41.6689 22.8891 41.975 24.4038 41.3941L23.9383 40.1803ZM26.4551 43.8124C25.3893 43.228 24.7476 42.0644 24.8199 40.8251L23.5222 40.7493C23.421 42.4819 24.3172 44.1228 25.8301 44.9523L26.4551 43.8124ZM29.7904 43.5652C28.8192 44.3004 27.5193 44.3959 26.4551 43.8124L25.8301 44.9523C27.3446 45.7828 29.1964 45.6452 30.575 44.6018L29.7904 43.5652ZM32.6385 46.93C31.5507 46.4158 30.8442 45.308 30.8327 44.0775L29.5327 44.0896C29.5488 45.8101 30.537 47.3745 32.0829 48.1053L32.6385 46.93ZM35.9313 46.5006C35.005 47.2779 33.7247 47.4435 32.6385 46.93L32.0829 48.1053C33.6303 48.8368 35.4535 48.5985 36.7669 47.4965L35.9313 46.5006ZM38.5516 44.3052L35.9317 46.5003L36.7666 47.4968L39.3865 45.3016L38.5516 44.3052ZM38.3191 44.7896V44.8034H39.6191V44.7896H38.3191ZM42.8285 46.8057L39.3527 44.2649L38.5855 45.3143L42.0614 47.8552L42.8285 46.8057ZM45.8177 47.0154C44.8632 47.5276 43.7062 47.4471 42.8285 46.8057L42.0614 47.8553C43.3419 48.791 45.0361 48.9102 46.4324 48.1609L45.8177 47.0154ZM47.3405 44.3706C47.3673 45.4795 46.7737 46.5024 45.8177 47.0154L46.4324 48.1609C47.8271 47.4125 48.6786 45.9304 48.6401 44.3392L47.3405 44.3706ZM51.6429 43.7498C50.6401 44.4127 49.3539 44.4328 48.3317 43.8018L47.6489 44.908C49.1022 45.8052 50.9347 45.7763 52.3598 44.8343L51.6429 43.7498ZM53.0382 40.674C53.1934 41.891 52.6474 43.0858 51.6429 43.7498L52.3598 44.8343C53.7833 43.8933 54.5448 42.2111 54.3277 40.5095L53.0382 40.674ZM56.922 39.2066C56.1127 40.0043 54.9464 40.2938 53.8706 39.9695L53.4953 41.2141C55.0301 41.6769 56.6893 41.2613 57.8345 40.1325L56.922 39.2066ZM57.7684 36.1084C58.0582 37.2232 57.7324 38.4078 56.922 39.2066L57.8345 40.1325C58.9786 39.0049 59.4322 37.3416 59.0266 35.7814L57.7684 36.1084ZM60.8182 34.3691C60.2001 35.0233 59.3301 35.3616 58.4451 35.2966L58.3499 36.5932C59.6284 36.687 60.8792 36.1975 61.7631 35.262L60.8182 34.3691ZM61.6374 31.9046C61.7386 32.8112 61.4369 33.7144 60.8182 34.3691L61.7631 35.262C62.6466 34.327 63.0726 33.0436 62.9293 31.7604L61.6374 31.9046ZM66.6565 26.867L61.8401 31.3571L62.7266 32.308L67.543 27.8179L66.6565 26.867ZM69.803 30.4978L67.6534 27.002L66.546 27.6829L68.6956 31.1787L69.803 30.4978ZM79.6518 23.4688L68.9011 30.2894L69.5975 31.3871L80.3482 24.5665L79.6518 23.4688ZM65.4933 1.66532L79.4463 24.3581L80.5537 23.6772L66.6007 0.984412L65.4933 1.66532ZM55.6446 8.6944L66.3952 1.87372L65.6988 0.776009L54.9481 7.59669L55.6446 8.6944ZM57.3901 10.3103L55.8501 7.80513L54.7426 8.48596L56.2827 10.9911L57.3901 10.3103ZM52.5802 12.9242L57.0626 11.2601L56.6102 10.0413L52.1277 11.7055L52.5802 12.9242ZM45.7519 10.6095L52.1322 12.9259L52.5758 11.7039L46.1956 9.38757L45.7519 10.6095ZM41.3156 10.9534C42.6807 10.2055 44.2926 10.081 45.7524 10.6097L46.1951 9.3874C44.3835 8.73126 42.3829 8.88638 40.691 9.81328L41.3156 10.9534ZM32.5935 11.2723C35.2761 10.4496 38.1247 10.361 40.8516 11.0154L41.155 9.75128C38.2019 9.04261 35.117 9.13861 32.2123 10.0295L32.5935 11.2723ZM24.4567 11.6001C27.128 11.6369 29.7995 11.5362 32.4608 11.2983L32.345 10.0035C29.7282 10.2374 27.1013 10.3364 24.4746 10.3002L24.4567 11.6001ZM25.8611 7.3489L23.9077 10.6167L25.0235 11.2837L26.977 8.01593L25.8611 7.3489ZM15.2503 1.55313L26.0777 8.23555L26.7604 7.12928L15.9331 0.446865L15.2503 1.55313ZM24.8334 7.60603L16.4013 2.40327L15.7187 3.50961L24.1508 8.71237L24.8334 7.60603ZM11.8972 30.4871L25.05 8.4928L23.9342 7.82559L10.7815 29.8199L11.8972 30.4871ZM2.56513 25.5002L10.9979 30.7066L11.6808 29.6004L3.24807 24.3941L2.56513 25.5002ZM15.5022 2.62278L2.34877 24.6135L3.46443 25.2808L16.6179 3.2901L15.5022 2.62278ZM65.0467 3.62856L77.5125 23.9052L78.62 23.2243L66.1541 2.94771L65.0467 3.62856ZM57.5763 9.15018L65.9487 3.83695L65.2521 2.73932L56.8798 8.05255L57.5763 9.15018ZM70.251 28.5375L57.7817 8.26087L56.6744 8.94186L69.1436 29.2185L70.251 28.5375ZM77.7179 23.016L69.3489 28.3293L70.0457 29.4268L78.4146 24.1135L77.7179 23.016ZM45.7247 10.7311C45.2161 10.5456 44.6828 10.4388 44.1426 10.4145L44.084 11.7132C44.4919 11.7316 44.8948 11.8122 45.2793 11.9524L45.7247 10.7311ZM52.5843 13.218L45.7236 10.7307L45.2805 11.9528L52.1412 14.4402L52.5843 13.218ZM57.3729 11.2741L52.1364 13.2198L52.5892 14.4384L57.8257 12.4927L57.3729 11.2741ZM66.9014 25.7723L58.153 11.543L57.0456 12.2238L65.794 26.4531L66.9014 25.7723ZM62.2379 30.8324L66.7909 26.5882L65.9045 25.6372L61.3514 29.8815L62.2379 30.8324ZM60.5457 29.8744C60.8196 30.1008 61.0525 30.375 61.2333 30.6847L62.356 30.0292C62.0986 29.5884 61.7662 29.1966 61.3739 28.8724L60.5457 29.8744ZM44.5027 16.6433L60.5462 29.8748L61.3734 28.8719L45.3298 15.6404L44.5027 16.6433ZM34.0873 18.0636C37.8348 19.144 41.8519 18.6544 45.2404 16.7053L44.5922 15.5784C41.5084 17.3522 37.8551 17.7969 34.4475 16.8145L34.0873 18.0636ZM32.9146 16.556C32.9401 17.2572 33.4096 17.8708 34.0896 18.0642L34.4453 16.8138C34.3182 16.7777 34.2192 16.6583 34.2137 16.5087L32.9146 16.556ZM33.9754 14.9651C33.3123 15.2087 32.889 15.8549 32.9146 16.556L34.2137 16.5087C34.2083 16.3588 34.2987 16.2313 34.4237 16.1854L33.9754 14.9651ZM40.8489 11.3796C38.7199 12.8713 36.4099 14.0763 33.9766 14.9647L34.4225 16.1859C36.9625 15.2585 39.3734 14.0008 41.5948 12.4442L40.8489 11.3796ZM44.1399 10.4144C42.9675 10.364 41.8118 10.7035 40.8484 11.3799L41.5953 12.4439C42.3257 11.9311 43.1994 11.6751 44.084 11.7132L44.1399 10.4144ZM44.1133 10.4138H44.1119V11.7138H44.1133V10.4138ZM37.1559 12.0062C37.836 12.0044 38.5155 12.0511 39.1892 12.146L39.3707 10.8588C38.6357 10.7552 37.8944 10.7042 37.1523 10.7062L37.1559 12.0062ZM37.1912 10.7073L37.1871 10.7071L37.1211 12.0054L37.1252 12.0056L37.1912 10.7073ZM32.8713 12.6746C34.2599 12.2348 35.7054 12.0096 37.1596 12.0064L37.1568 10.7064C35.5702 10.7099 33.9932 10.9556 32.4788 11.4352L32.8713 12.6746ZM23.6103 13.0074C26.6548 13.0811 29.701 12.9792 32.7342 12.7022L32.616 11.4076C29.6325 11.6801 26.6363 11.7803 23.6417 11.7078L23.6103 13.0074ZM15.0045 28.036L24.1838 12.6913L23.0682 12.024L13.8888 27.3687L15.0045 28.036ZM17.0378 28.8241L14.8353 27.1813L14.058 28.2234L16.2606 29.8662L17.0378 28.8241ZM18.6451 26.823L16.2315 28.8471L17.0669 29.8432L19.4805 27.8191L18.6451 26.823ZM23.3242 26.2173C21.7789 25.4873 19.9586 25.724 18.6457 26.8226L19.4799 27.8196C20.4059 27.0448 21.6841 26.8802 22.7688 27.3927L23.3242 26.2173ZM25.8751 30.2253C25.856 28.5074 24.8679 26.9466 23.3242 26.2173L22.7688 27.3927C23.8551 27.9059 24.5615 29.0111 24.5752 30.2398L25.8751 30.2253ZM25.055 29.5238L24.8038 29.7376L25.6465 30.7275L25.8976 30.5137L25.055 29.5238ZM30.235 29.1807C28.6178 28.1466 26.5287 28.2849 25.058 29.5212L25.8946 30.5163C26.9311 29.6449 28.3978 29.549 29.5347 30.2759L30.235 29.1807ZM32.1654 34.0469C32.6236 32.1765 31.8498 30.2132 30.235 29.1807L29.5347 30.2759C30.6742 31.0045 31.2305 32.3997 30.9028 33.7376L32.1654 34.0469ZM35.037 34.5857C34.1111 33.6191 32.8033 33.125 31.4756 33.2449L31.5926 34.5396C32.5228 34.4556 33.4432 34.8012 34.0983 35.485L35.037 34.5857ZM36.2558 38.2212C36.4085 36.887 35.9624 35.5517 35.037 34.5857L34.0983 35.485C34.7538 36.1694 35.0733 37.1199 34.9642 38.0733L36.2558 38.2212ZM40.0424 39.1039C38.9614 37.6948 37.1549 37.0683 35.4445 37.5187L35.7755 38.7758C36.9734 38.4604 38.245 38.8967 39.0109 39.8952L40.0424 39.1039ZM40.4334 43.9965C41.2747 42.4328 41.122 40.5112 40.0424 39.1039L39.0109 39.8952C39.7782 40.8953 39.8882 42.266 39.2886 43.3806L40.4334 43.9965ZM43.6499 45.6471L40.2439 43.1633L39.478 44.2137L42.8839 46.6975L43.6499 45.6471ZM45.6061 45.2661C45.1487 45.9133 44.2768 46.071 43.6313 45.634L42.9025 46.7106C44.1397 47.548 45.8056 47.2361 46.6677 46.0164L45.6061 45.2661ZM45.3138 43.2198C45.9344 43.707 46.0675 44.6133 45.6061 45.2661L46.6677 46.0164C47.5259 44.8023 47.286 43.1153 46.1165 42.1973L45.3138 43.2198ZM38.6957 38.387L45.3318 43.2335L46.0985 42.1836L39.4624 37.3372L38.6957 38.387ZM38.4193 36.5164C38.0063 37.1 38.1117 37.91 38.6672 38.365L39.4909 37.3592C39.4797 37.35 39.4712 37.3363 39.4687 37.3174C39.4661 37.2984 39.4706 37.2813 39.4804 37.2674L38.4193 36.5164ZM40.2501 36.1623C39.641 35.767 38.8361 35.9275 38.4193 36.5164L39.4804 37.2674C39.4899 37.2541 39.5008 37.2483 39.5112 37.2463C39.5216 37.2443 39.5316 37.2458 39.5424 37.2528L40.2501 36.1623ZM48.9531 42.5113L40.2794 36.1824L39.5131 37.2326L48.1868 43.5615L48.9531 42.5113ZM50.6897 42.7287C50.1221 42.9829 49.4632 42.9048 48.9671 42.5218L48.1728 43.5509C49.0465 44.2253 50.2145 44.3659 51.221 43.9151L50.6897 42.7287ZM51.7097 41.2823C51.6524 41.9222 51.2585 42.4739 50.6897 42.7287L51.221 43.9151C52.2264 43.4649 52.906 42.4991 53.0046 41.3983L51.7097 41.2823ZM50.9612 39.6692C51.4774 40.0254 51.7671 40.6423 51.7097 41.2824L53.0046 41.3983C53.1031 40.2978 52.6065 39.2252 51.6996 38.5993L50.9612 39.6692ZM41.7257 32.9277L50.9472 39.6593L51.7137 38.6093L42.4922 31.8777L41.7257 32.9277ZM41.4167 31.0338C40.9881 31.6412 41.122 32.4877 41.7261 32.928L42.4918 31.8774C42.4799 31.8687 42.4706 31.8552 42.4674 31.8355C42.4642 31.8158 42.4686 31.7979 42.4789 31.7834L41.4167 31.0338ZM43.3087 30.7191C42.6981 30.2746 41.8496 30.4204 41.4167 31.0339L42.4789 31.7834C42.4888 31.7693 42.5 31.7637 42.511 31.7618C42.5219 31.76 42.5323 31.7619 42.5436 31.7701L43.3087 30.7191ZM53.7587 38.3455L43.3094 30.7195L42.543 31.7696L52.9923 39.3956L53.7587 38.3455ZM56.0944 37.9091C55.55 38.6787 54.5093 38.8628 53.7444 38.3354L53.0065 39.4057C54.3629 40.3408 56.2039 40.0052 57.1557 38.6599L56.0944 37.9091ZM55.7386 35.4828C56.4811 36.0565 56.6428 37.1339 56.0944 37.9091L57.1557 38.6599C58.1034 37.3202 57.8314 35.4569 56.5333 34.4541L55.7386 35.4828ZM44.6864 27.4149L55.7527 35.4934L56.5192 34.4434L45.4529 26.3649L44.6864 27.4149ZM44.3817 25.5242C43.9554 26.1284 44.0854 26.9698 44.6828 27.4122L45.4565 26.3675C45.4447 26.3588 45.4355 26.3452 45.4324 26.3256C45.4293 26.3059 45.4337 26.2882 45.4439 26.2737L44.3817 25.5242ZM46.2653 25.2032C45.6546 24.7659 44.8122 24.914 44.3817 25.5242L45.4439 26.2737C45.4538 26.2597 45.465 26.254 45.4759 26.2522C45.4868 26.2503 45.4972 26.2521 45.5084 26.2602L46.2653 25.2032ZM57.7362 33.5775L46.2701 25.2067L45.5036 26.2567L56.9697 34.6275L57.7362 33.5775ZM59.8973 33.2232C59.3783 33.9136 58.424 34.0628 57.7277 33.5714L56.9782 34.6336C58.2533 35.5334 59.9986 35.2519 60.9364 34.0043L59.8973 33.2232ZM59.6534 30.9769C60.3101 31.5359 60.4204 32.5274 59.8973 33.2232L60.9364 34.0043C61.8702 32.7622 61.6791 30.9942 60.4961 29.987L59.6534 30.9769ZM44.333 18.3399L59.6611 30.9834L60.4883 29.9805L45.1602 17.337L44.333 18.3399ZM33.7038 19.4323C37.475 20.5196 41.508 20.1596 45.034 18.4215L44.4592 17.2554C41.223 18.8507 37.5234 19.1806 34.064 18.1832L33.7038 19.4323ZM31.5178 16.6016C31.5628 17.9195 32.4402 19.0668 33.7033 19.4321L34.0645 18.1833C33.3526 17.9774 32.8432 17.3244 32.817 16.5573L31.5178 16.6016ZM33.5038 13.6255C32.2696 14.0785 31.4728 15.284 31.5178 16.6016L32.817 16.5573C32.7908 15.7899 33.2548 15.1017 33.9518 14.8459L33.5038 13.6255ZM38.9324 10.9532C37.221 12.0362 35.4016 12.9319 33.5047 13.6252L33.9509 14.8462C35.9352 14.121 37.838 13.1842 39.6275 12.0517L38.9324 10.9532ZM21.5815 27.2348C21.4803 27.2297 21.3789 27.2297 21.2777 27.2348L21.344 28.5331C21.401 28.5302 21.4582 28.5302 21.5152 28.5331L21.5815 27.2348ZM24.3039 29.3072C23.9065 28.1172 22.8264 27.289 21.5766 27.2346L21.5201 28.5334C22.2216 28.5639 22.8408 29.03 23.0708 29.719L24.3039 29.3072ZM23.3867 32.6234C24.3397 31.8129 24.7008 30.4958 24.3039 29.3072L23.0708 29.719C23.3014 30.4094 23.0891 31.1699 22.5445 31.6331L23.3867 32.6234ZM20.5879 34.9677L23.383 32.6265L22.5482 31.6299L19.7531 33.9712L20.5879 34.9677ZM16.3964 34.5055C17.4308 35.7793 19.28 35.9929 20.5714 34.9811L19.7697 33.9578C19.0397 34.5296 17.9956 34.4125 17.4055 33.686L16.3964 34.5055ZM16.7272 30.2793C15.5107 31.3693 15.3665 33.2372 16.3964 34.5055L17.4055 33.686C16.811 32.9538 16.8968 31.8728 17.5947 31.2475L16.7272 30.2793ZM19.5346 27.9208L16.7429 30.2657L17.579 31.2611L20.3707 28.9163L19.5346 27.9208ZM21.277 27.2352C20.6401 27.271 20.0318 27.5104 19.5388 27.9173L20.3664 28.9198C20.6472 28.688 20.9916 28.5533 21.3501 28.5331L21.277 27.2352ZM21.2775 28.5331L21.2803 28.5333L21.3468 27.235L21.3441 27.2348L21.2775 28.5331ZM27.7898 31.2201C28.5215 31.1838 29.2022 31.6277 29.4719 32.3355L30.6867 31.8727C30.2205 30.6488 29.0301 29.857 27.7253 29.9217L27.7898 31.2201ZM27.1075 30.5708V30.5709H28.4075V30.5708H27.1075ZM26.7837 31.6173C27.0694 31.3771 27.4225 31.2384 27.79 31.22L27.7251 29.9217C27.0722 29.9543 26.4485 30.2007 25.9472 30.6222L26.7837 31.6173ZM21.7353 35.8513L26.7831 31.6178L25.9478 30.6217L20.8999 34.8552L21.7353 35.8513ZM21.5203 38.3135C20.9149 37.5688 21.0154 36.4662 21.7398 35.8475L20.8954 34.859C19.632 35.9382 19.4632 37.844 20.5116 39.1336L21.5203 38.3135ZM23.9171 38.5578C23.1886 39.1584 22.1209 39.0523 21.5203 38.3135L20.5116 39.1336C21.5649 40.4291 23.4559 40.6228 24.744 39.5609L23.9171 38.5578ZM28.9607 34.3278L23.9129 38.5613L24.7482 39.5574L29.7961 35.3239L28.9607 34.3278ZM29.4719 32.3355C29.7422 33.0452 29.5329 33.8483 28.9609 34.3277L29.7959 35.324C30.7967 34.4853 31.1523 33.0948 30.6867 31.8727L29.4719 32.3355ZM34.6598 36.5987C34.1868 35.378 32.9929 34.5934 31.6892 34.665L31.7605 35.963C32.4915 35.9229 33.1741 36.3626 33.4476 37.0684L34.6598 36.5987ZM33.7901 40.0537C34.785 39.2091 35.132 37.8174 34.6598 36.5987L33.4476 37.0684C33.7218 37.776 33.5175 38.5799 32.9487 39.0627L33.7901 40.0537ZM29.8383 43.3702L33.7873 40.0561L32.9516 39.0603L29.0026 42.3744L29.8383 43.3702ZM25.5841 42.9576C26.6436 44.2621 28.5501 44.4499 29.838 43.3705L29.003 42.3742C28.2742 42.9849 27.1975 42.8821 26.5932 42.138L25.5841 42.9576ZM25.9899 38.6646C24.7084 39.7393 24.5295 41.6592 25.5841 42.9576L26.5932 42.138C25.9839 41.3879 26.0905 40.2768 26.8252 39.6607L25.9899 38.6646ZM29.9389 35.354L25.9899 38.6646L26.8251 39.6608L30.7741 36.3503L29.9389 35.354ZM31.6893 34.6652C31.0485 34.7003 30.4366 34.9414 29.9416 35.3518L30.7713 36.3525C31.0533 36.1187 31.3997 35.9831 31.7604 35.9633L31.6893 34.6652ZM31.0748 35.314V35.3143H32.3748V35.314H31.0748ZM36.6013 40.1151C37.3028 40.1439 37.923 40.6085 38.1547 41.2968L39.3868 40.882C38.9866 39.6931 37.9046 38.8676 36.6548 38.8162L36.6013 40.1151ZM36.598 38.8163L36.5953 38.8164L36.6609 40.1148L36.6636 40.1146L36.598 38.8163ZM36.4364 40.1177C36.4934 40.1139 36.5505 40.113 36.6076 40.1151L36.654 38.8159C36.5527 38.8123 36.4512 38.8138 36.3501 38.8206L36.4364 40.1177ZM35.4595 40.5022C35.7378 40.2733 36.0781 40.1396 36.4328 40.1179L36.3537 38.8203C35.7236 38.8588 35.1223 39.0963 34.6338 39.4981L35.4595 40.5022ZM32.8434 42.6936L35.464 40.4984L34.6292 39.5018L32.0086 41.697L32.8434 42.6936ZM32.6366 45.1489C32.0331 44.4066 32.1308 43.3078 32.8503 42.6877L32.0016 41.7029C30.7467 42.7843 30.5827 44.6833 31.6279 45.969L32.6366 45.1489ZM35.0277 45.398C34.2989 45.9935 33.2354 45.8855 32.6366 45.1489L31.6279 45.969C32.6779 47.2605 34.5614 47.4577 35.8502 46.4047L35.0277 45.398ZM37.6377 43.2082L35.0212 45.4034L35.8567 46.3993L38.4733 44.2042L37.6377 43.2082ZM38.1547 41.2968C38.3869 41.9865 38.1765 42.7475 37.6331 43.2121L38.4779 44.2002C39.4286 43.3874 39.7865 42.0696 39.3868 40.882L38.1547 41.2968Z" fill="white"/>
<path d="M5 21L16 2L5 21Z" fill="white"/>
<path d="M5 21L16 2" stroke="white" stroke-width="1.3"/>
</svg>
