<svg width="327" height="166" viewBox="0 0 327 166" fill="none" xmlns="http://www.w3.org/2000/svg">
<g id="logo">
<g id="Group 6">
<path id="Path" d="M107.097 136.685H86.0181V142.081C86.0181 143.8 87.4766 145.197 89.2651 145.197H101.007V147.986C99.4371 151.161 94.4708 156.295 85.2037 156.295C74.9039 156.295 67.7127 149.335 67.7127 139.362C67.7127 129.431 74.7549 122.493 84.8417 122.493C90.6863 122.493 96.105 125.127 98.9793 129.389L99.4105 130.036L109.854 127.386L109.162 126.187C104.201 117.777 95.3385 112.857 84.8364 112.713C77.3258 112.713 70.3528 115.39 65.2003 120.24C59.9572 125.186 57.0669 131.964 57.0669 139.357C57.0669 146.744 59.9572 153.521 65.2003 158.447C70.3581 163.307 77.3258 166 84.8364 166C85.0546 166 85.2729 165.995 85.4539 165.995C85.539 165.995 85.6242 165.979 85.6881 165.979H85.7413C85.8531 165.973 85.9649 165.973 86.0766 165.963C92.3044 165.722 98.0638 163.645 102.721 159.967C105.899 157.467 108.374 154.378 110.078 150.775L110.179 150.577V139.785C110.184 138.125 108.827 136.765 107.097 136.685Z" fill="white"/>
<path id="Shape" fill-rule="evenodd" clip-rule="evenodd" d="M170.756 120.234C175.913 115.384 182.897 112.707 190.397 112.707C197.924 112.707 204.907 115.384 210.086 120.234C215.351 125.18 218.241 131.958 218.241 139.351C218.241 146.728 215.345 153.51 210.086 158.441C204.913 163.302 197.924 165.994 190.397 165.994C182.897 165.994 175.913 163.302 170.756 158.441C165.518 153.516 162.633 146.738 162.633 139.351C162.633 131.958 165.518 125.18 170.756 120.234ZM173.288 139.356C173.288 149.286 180.33 156.224 190.401 156.224C200.531 156.224 207.61 149.286 207.61 139.356C207.61 129.425 200.536 122.488 190.401 122.488C180.33 122.488 173.288 129.425 173.288 139.356Z" fill="white"/>
<path id="Path_2" d="M218.688 116.807V123.118H235.216V165.008H245.569V123.118H258.999C260.793 123.118 262.24 121.726 262.24 120.008V113.702H221.93C220.142 113.702 218.688 115.072 218.688 116.807Z" fill="white"/>
<path id="Path_3" d="M267.835 116.807V165.008H274.941C276.724 165.008 278.188 163.611 278.188 161.898V113.702H271.077C269.283 113.702 267.835 115.072 267.835 116.807Z" fill="white"/>
<path id="Path_4" d="M309.089 134.335C308.467 134.153 307.849 133.96 307.237 133.778C301.605 132.059 296.767 130.576 296.767 127.257C296.767 123.055 301.249 121.561 305.432 121.561C310.686 121.561 314.732 124.591 315.743 129.297L315.977 130.405L322.993 128.558C324.297 128.114 325.17 126.947 325.17 125.625C325.17 125.277 325.117 124.945 324.994 124.618C324.978 124.581 324.973 124.549 324.952 124.5C324.941 124.463 324.92 124.415 324.893 124.372C322.019 117.295 314.497 112.702 305.736 112.702C294.627 112.702 286.259 119.078 286.259 127.536C286.259 136.99 295.463 139.966 300.972 141.76C301.797 142.017 302.633 142.252 303.479 142.509C309.803 144.404 315.791 146.198 315.791 150.587C315.791 154.276 311.99 156.856 306.54 156.856C299.396 156.856 295.436 152.322 294.771 148.114L294.584 146.942L287.132 148.901C285.935 149.297 285.2 150.496 285.2 151.744C285.2 152.365 285.45 152.948 285.45 152.948C288.58 161.112 296.293 165.994 306.109 165.994C318.037 165.994 326.373 159.511 326.373 150.245C326.367 139.634 316.382 136.578 309.089 134.335Z" fill="white"/>
<path id="Shape_2" fill-rule="evenodd" clip-rule="evenodd" d="M26.3483 113.702H33.151L33.4544 114.291L59.5099 165.008H50.0458C48.8801 165.008 47.7942 164.398 47.214 163.429L42.9344 155.083C42.7375 154.858 42.45 154.746 42.1466 154.746H17.3579C16.9747 154.746 16.6181 154.939 16.4371 155.27L12.3757 163.242C11.8434 164.318 10.6884 165.008 9.45345 165.008H0L26.3483 113.702ZM37.9828 145.33L29.7483 129.083L21.5138 145.33H37.9828Z" fill="white"/>
<path id="Path_5" d="M157.646 130.565C157.646 120.163 149.651 113.702 136.78 113.702H122.1C120.311 113.702 118.858 115.077 118.858 116.807V161.898C118.858 163.611 120.311 165.008 122.1 165.008H129.206V123.118H137.733C143.615 123.118 147 125.832 147 130.57C147 135.308 143.62 138.022 137.733 138.022H131.468L147.963 163.488C147.985 163.525 148.011 163.557 148.027 163.59C148.629 164.478 149.656 165.019 150.769 165.019H160.669L147.878 145.404C154.197 142.637 157.646 137.428 157.646 130.565Z" fill="white"/>
</g>
<g id="Shape 2">
<path id="Shape_3" fill-rule="evenodd" clip-rule="evenodd" d="M214.295 58.4333H177.184C175.99 58.4333 175.01 58.9481 174.592 59.6959C174.576 59.7285 174.565 59.7664 174.544 59.8097L169.745 69.6344L169.531 70.0463C169.086 70.7345 168.17 71.2222 167.029 71.2222L105.993 71.2005L112.431 60.0157C112.447 59.9777 112.463 59.9181 112.495 59.8856C112.908 59.1269 113.877 58.5959 115.077 58.5959L156.719 58.4008C156.81 58.4062 156.907 58.4062 157.003 58.4062C157.105 58.4062 157.196 58.4062 157.287 58.4008C158.347 58.3249 159.183 57.8264 159.585 57.1327H159.59L159.681 56.9431C159.686 56.9214 159.686 56.9106 159.686 56.9106L164.426 47.2268C164.464 47.1726 164.48 47.1238 164.507 47.0805C164.93 46.3272 165.894 45.807 167.088 45.807L204.853 45.8232C206.085 45.8232 207.22 46.3272 207.97 47.2647C207.981 47.2864 207.991 47.3026 208.002 47.3026L214.295 58.4333ZM232.133 90.1615L218.63 66.0577L218.464 65.8463C218.464 65.8355 218.459 65.8301 218.459 65.8301C217.8 65.0714 216.681 64.5674 215.486 64.5674L182.039 64.5566C180.855 64.5566 179.907 65.0443 179.473 65.7976L179.35 66.0523L174.524 75.9203C174.498 75.9636 174.476 76.0016 174.455 76.0503C174.032 76.809 173.062 77.3347 171.868 77.3347L104.239 77.3292C103.269 77.3292 102.316 77.611 101.63 78.7544L95.0908 90.1506L232.133 90.1615ZM190.886 17.2758L150.497 17.2596C149.468 17.2596 148.633 17.7798 148.274 18.5385C148.247 18.5872 148.231 18.6306 148.22 18.6902L142.591 32.021C142.581 32.0589 142.554 32.1131 142.543 32.1456C142.179 32.9151 141.349 33.4245 140.315 33.4245H127.943L145.933 1.49565C146.282 0.525645 147.203 0 148.247 0H179.429C180.452 0 181.411 0.520226 181.973 1.26805L181.984 1.27347C182.011 1.31682 182.123 1.47397 182.129 1.49565L190.886 17.2758ZM203.73 39.7L195.294 24.7814C195.262 24.7381 195.236 24.6893 195.198 24.6568C194.62 23.8927 193.607 23.3725 192.531 23.3725H154.595C153.513 23.3725 152.651 23.8873 152.27 24.6568C152.244 24.6947 152.222 24.7435 152.206 24.7814L146.449 37.9009C146.4 38.1122 146.309 38.3019 146.202 38.4753C145.811 39.0877 145.051 39.5104 144.145 39.5483C144.097 39.5483 144.044 39.5483 144.001 39.5483C143.953 39.5483 143.904 39.5483 143.856 39.5483H125.7C124.741 39.5374 123.857 40.0468 123.343 40.9356L117.055 51.8874L153.427 52.2613C154.193 52.1692 154.825 51.7953 155.2 51.2642L155.516 50.5326L159.635 41.1686C159.635 41.1577 159.635 41.1523 159.646 41.1523C159.667 41.0765 159.694 41.0223 159.726 40.9572C159.726 40.9518 159.731 40.941 159.737 40.941C160.117 40.1823 160.979 39.6946 162.045 39.6946H203.73V39.7Z" fill="white"/>
</g>
</g>
</svg>
